<svg version="1.0" xmlns="http://www.w3.org/2000/svg" width="1024.000000pt" height="1024.000000pt"
  viewBox="0 0 1024.000000 1024.000000" preserveAspectRatio="xMidYMid meet">

  <g transform="translate(0.000000,1024.000000) scale(0.100000,-0.100000)" fill="#0366d6" stroke="none">
    <path d="M4725 10104 c-297 -18 -714 -86 -988 -160 -329 -89 -576 -183 -876
-334 -296 -148 -522 -287 -766 -471 -311 -234 -600 -518 -860 -844 -262 -329
-510 -754 -695 -1189 -413 -977 -490 -2090 -215 -3116 81 -302 162 -520 305
-817 176 -364 325 -604 565 -905 478 -601 1079 -1081 1739 -1391 328 -153 537
-229 861 -312 788 -201 1553 -203 2346 -5 861 216 1660 678 2285 1322 284 293
533 621 739 973 162 275 285 555 400 905 84 257 116 391 160 655 45 280 53
341 65 535 14 227 12 398 -5 644 -22 316 -46 480 -116 801 -33 152 -164 556
-236 725 -119 281 -299 620 -445 838 -468 697 -1081 1250 -1783 1607 -683 347
-1404 526 -2169 539 -138 2 -278 2 -311 0z m656 -419 c330 -31 719 -117 1044
-228 220 -76 526 -217 760 -352 408 -233 871 -624 1151 -970 138 -171 340
-453 424 -595 150 -251 310 -593 398 -855 179 -532 250 -984 239 -1523 -6
-292 -22 -448 -73 -712 -81 -423 -182 -728 -367 -1110 -168 -347 -386 -673
-651 -980 -127 -146 -383 -402 -496 -495 -679 -561 -1437 -899 -2265 -1010
-60 -8 -215 -20 -343 -27 -485 -25 -954 33 -1463 181 -316 92 -716 271 -1027
460 -568 344 -1130 892 -1456 1420 -304 493 -512 1020 -605 1531 -140 769 -92
1481 150 2213 154 467 400 930 710 1337 169 222 443 512 644 681 324 271 603
454 950 620 484 231 899 350 1445 413 163 19 638 20 831 1z" />
    <path d="M7078 8215 c-183 -30 -377 -127 -503 -251 -137 -136 -228 -301 -265
-485 -24 -116 -25 -199 -5 -306 59 -313 237 -553 510 -688 300 -148 730 -108
995 93 83 62 195 183 238 255 77 128 121 274 129 425 14 254 -72 481 -251 669
-132 139 -282 230 -454 274 -102 26 -280 33 -394 14z m272 -145 c172 -28 331
-108 450 -230 113 -115 177 -235 206 -386 48 -254 -24 -499 -201 -679 -108
-109 -234 -176 -397 -210 -102 -22 -277 -19 -374 5 -565 142 -776 839 -381
1258 176 186 449 281 697 242z" />

    <path d="M6780 7887 c-18 -9 -48 -59 -107 -177 -120 -242 -196 -412 -195 -434
0 -10 9 -27 18 -37 16 -17 33 -19 191 -19 95 0 173 -2 173 -3 0 -2 -54 -118
-121 -257 -128 -268 -132 -284 -84 -316 37 -24 81 -10 108 34 12 21 85 167
162 325 122 252 137 291 129 315 -17 48 -43 54 -216 49 -87 -2 -158 -3 -158
-1 0 2 47 103 105 224 58 122 105 230 105 240 0 47 -65 80 -110 57z" />
    <path d="M7627 7889 c-10 -6 -83 -143 -162 -305 -158 -321 -160 -330 -94 -353
18 -6 97 -11 181 -11 82 0 148 -4 146 -9 -1 -4 -54 -115 -117 -245 -65 -136
-114 -250 -114 -267 0 -16 8 -38 18 -49 21 -23 72 -27 98 -7 25 18 320 627
320 661 0 18 -8 36 -22 48 -20 16 -43 18 -186 18 l-164 0 93 193 c51 105 99
207 106 224 17 44 6 79 -30 98 -34 17 -48 18 -73 4z" />

    <path d="M3400 7814 c-365 -30 -474 -44 -724 -95 -290 -58 -517 -138 -701
-244 -88 -50 -213 -173 -251 -245 l-29 -55 -3 -2160 c-2 -2386 -7 -2218 61
-2307 138 -180 484 -319 1027 -412 425 -73 1037 -105 1421 -76 185 15 516 56
640 80 290 56 560 150 713 248 l41 26 1205 3 c1001 3 1213 6 1255 18 103 29
218 127 264 225 l26 55 0 1491 0 1490 -38 76 c-46 95 -128 175 -208 203 -52
19 -91 20 -1166 23 l-1112 2 -3 513 -3 512 -28 58 c-130 264 -652 467 -1417
553 -136 15 -845 28 -970 18z m920 -173 c107 -11 242 -27 300 -36 559 -88 958
-259 1037 -445 23 -53 13 -131 -23 -183 -231 -328 -1302 -529 -2384 -447 -471
36 -948 154 -1190 296 -79 46 -165 126 -191 176 -24 46 -24 118 -2 166 84 181
514 357 1066 437 160 23 413 50 552 59 153 10 649 -4 835 -23z m-2398 -907
c329 -242 1108 -389 1973 -371 313 7 471 21 775 68 407 64 761 181 930 308
l55 41 3 -575 c3 -651 7 -612 -79 -690 -49 -44 -220 -128 -358 -174 -184 -63
-531 -131 -851 -167 -317 -35 -948 -29 -1335 12 -574 61 -1041 217 -1153 387
l-27 41 0 583 c0 321 1 583 2 583 2 0 31 -21 65 -46z m6106 -740 c63 -18 111
-60 138 -118 l24 -51 0 -1448 c0 -1579 4 -1474 -57 -1554 -17 -22 -51 -47 -88
-65 l-60 -28 -1105 6 c-608 4 -1106 8 -1107 8 -2 1 6 24 16 52 10 27 22 81 26
120 l7 71 196 6 c109 4 541 4 962 1 421 -2 796 -2 834 2 58 5 75 11 98 34 l28
28 0 562 0 561 -26 24 -27 25 -1036 2 -1036 3 0 130 0 130 1036 3 1036 2 27
26 26 27 0 561 c0 538 -1 562 -20 586 l-19 25 -1038 5 -1038 5 -3 132 -3 133
483 3 c1211 7 1682 5 1726 -9z m-1398 -807 c0 -140 3 -288 6 -330 l7 -77 -117
0 -116 0 0 330 0 330 110 0 110 0 0 -253z m320 -77 l0 -330 -105 0 -105 0 0
330 0 330 105 0 105 0 0 -330z m330 0 l0 -330 -110 0 -110 0 0 208 c0 115 -3
264 -7 330 l-6 122 116 0 117 0 0 -330z m330 0 l0 -330 -115 0 -115 0 0 330 0
330 115 0 115 0 0 -330z m-5713 240 c139 -122 583 -254 1044 -309 306 -37 441
-45 804 -45 620 1 1120 66 1535 199 118 38 290 118 348 162 l32 24 0 -557 c0
-641 6 -601 -98 -695 -174 -156 -611 -281 -1182 -338 -580 -59 -987 -50 -1552
34 -224 34 -514 109 -676 177 -150 63 -271 160 -292 238 -11 38 -14 1140 -4
1140 4 0 22 -14 41 -30z m112 -1455 c193 -97 537 -189 896 -239 788 -111 1748
-53 2335 141 143 47 322 127 376 168 18 14 37 25 42 25 6 0 9 -215 8 -552 -1
-639 7 -588 -109 -694 -227 -208 -874 -357 -1612 -371 -766 -14 -1479 94
-1861 284 -99 50 -185 116 -209 164 -13 24 -15 116 -15 599 l0 572 48 -35 c26
-19 71 -47 101 -62z m4621 -285 l0 -330 -110 0 -110 0 0 330 0 330 110 0 110
0 0 -330z m329 0 l4 -330 -117 0 -116 0 0 330 0 330 113 0 112 0 4 -330z m321
0 l0 -330 -110 0 -110 0 0 284 c0 156 -3 304 -6 330 l-7 46 117 0 116 0 0
-330z m328 3 l-3 -328 -110 0 -110 0 -3 328 -2 327 115 0 115 0 -2 -327z" />
    <path d="M4890 6022 c-109 -54 -104 -209 8 -263 76 -37 161 -9 196 65 62 132
-73 264 -204 198z" />
    <path d="M4344 5936 c-87 -38 -116 -165 -52 -233 37 -40 76 -56 126 -50 83 9
136 74 129 158 -9 106 -108 166 -203 125z" />
    <path d="M4894 4640 c-27 -11 -72 -65 -80 -96 -24 -93 50 -188 146 -188 142 0
201 174 91 267 -27 22 -42 27 -84 26 -29 0 -61 -4 -73 -9z" />
    <path d="M4357 4566 c-52 -19 -73 -40 -93 -92 -52 -137 116 -263 231 -172 37
29 55 70 55 124 0 103 -98 174 -193 140z" />
    <path d="M4874 3241 c-61 -37 -87 -154 -47 -210 11 -14 40 -37 66 -49 60 -31
115 -23 165 22 29 27 35 41 40 85 6 65 -18 123 -63 151 -42 26 -119 27 -161 1z" />
    <path d="M4326 3147 c-101 -58 -99 -184 5 -255 28 -20 42 -23 82 -18 85 9 137
65 137 148 0 116 -122 184 -224 125z" />
  </g>
</svg>
